<svg xmlns="http://www.w3.org/2000/svg" viewBox="0 0 1200 630" fill="none">
  <rect width="1200" height="630" fill="#ffffff"/>

  <!-- LEFT SIDE: brand + headline -->
  <g transform="translate(72, 136)">
    <!-- Logo mark + wordmark -->
    <rect x="4" y="0" width="20" height="25" rx="4" fill="#003499" opacity="0.15"/>
    <rect x="0" y="4" width="20" height="25" rx="4" fill="#003499"/>
    <rect x="5" y="10" width="10" height="1.8" rx="0.9" fill="#ffffff" opacity="0.8"/>
    <rect x="5" y="14.5" width="7" height="1.4" rx="0.7" fill="#ffffff" opacity="0.3"/>
    <rect x="5" y="18.5" width="9" height="1.4" rx="0.7" fill="#ffffff" opacity="0.3"/>
    <text x="30" y="21" font-family="-apple-system, BlinkMacSystemFont, 'Segoe UI', sans-serif" font-size="22" font-weight="600" fill="#1d1d1f" letter-spacing="-0.5">Fundslip</text>

    <!-- Headline -->
    <text x="0" y="88" font-family="-apple-system, BlinkMacSystemFont, 'Segoe UI', sans-serif" font-size="48" font-weight="600" fill="#1d1d1f" letter-spacing="-1.5">Bank Statements</text>
    <text x="0" y="142" font-family="-apple-system, BlinkMacSystemFont, 'Segoe UI', sans-serif" font-size="48" font-weight="600" fill="#1d1d1f" letter-spacing="-1.5">for Ethereum.</text>
    <text x="0" y="196" font-family="-apple-system, BlinkMacSystemFont, 'Segoe UI', sans-serif" font-size="48" font-weight="600" fill="#86868b" letter-spacing="-1.5">Verifiable.</text>

    <!-- Subtitle -->
    <text x="0" y="248" font-family="-apple-system, BlinkMacSystemFont, 'Segoe UI', sans-serif" font-size="18" fill="#86868b">EIP-712 signed. Anyone can verify. No backend.</text>

    <!-- Trust indicators -->
    <g transform="translate(0, 284)">
      <circle cx="5" cy="0" r="3" fill="#85f8c4"/>
      <text x="14" y="4" font-family="-apple-system, BlinkMacSystemFont, 'Segoe UI', sans-serif" font-size="13" fill="#86868b">Open Source</text>
      <circle cx="130" cy="0" r="3" fill="#85f8c4"/>
      <text x="139" y="4" font-family="-apple-system, BlinkMacSystemFont, 'Segoe UI', sans-serif" font-size="13" fill="#86868b">Free Forever</text>
    </g>
  </g>

  <!-- RIGHT SIDE: statement card -->
  <g transform="translate(616, 36)">
    <rect x="0" y="0" width="512" height="558" rx="16" fill="#ffffff" stroke="#e5e5ea" stroke-width="1"/>

    <!-- Card header -->
    <g transform="translate(24, 22)">
      <rect x="0" y="0" width="13" height="16" rx="3" fill="#003499"/>
      <rect x="3" y="4" width="7" height="1.4" rx="0.7" fill="#ffffff" opacity="0.7"/>
      <rect x="3" y="7.5" width="4.5" height="1.2" rx="0.6" fill="#ffffff" opacity="0.3"/>
      <text x="18" y="12" font-family="-apple-system, BlinkMacSystemFont, 'Segoe UI', sans-serif" font-size="13" font-weight="600" fill="#1d1d1f">Fundslip</text>

      <!-- Verified badge -->
      <rect x="388" y="0" width="62" height="18" rx="9" fill="#85f8c4" opacity="0.15"/>
      <circle cx="400" cy="9" r="3" fill="#85f8c4"/>
      <path d="M398,9 L399.2,10.2 L402,7.5" stroke="#003499" stroke-width="1" stroke-linecap="round" stroke-linejoin="round" fill="none"/>
      <text x="407" y="13" font-family="-apple-system, BlinkMacSystemFont, 'Segoe UI', sans-serif" font-size="8" font-weight="500" fill="#003499" letter-spacing="0.5">VERIFIED</text>
    </g>
    <line x1="24" y1="48" x2="488" y2="48" stroke="#e5e5ea" stroke-width="0.5"/>

    <!-- Account details -->
    <g transform="translate(24, 62)">
      <text x="0" y="0" font-family="-apple-system, BlinkMacSystemFont, 'Segoe UI', sans-serif" font-size="8" fill="#86868b" letter-spacing="0.6">ACCOUNT</text>
      <text x="0" y="14" font-family="'SF Mono', 'Fira Code', monospace" font-size="11" fill="#1d1d1f">sshdopey.eth</text>
      <text x="170" y="0" font-family="-apple-system, BlinkMacSystemFont, 'Segoe UI', sans-serif" font-size="8" fill="#86868b" letter-spacing="0.6">NETWORK</text>
      <text x="170" y="14" font-family="-apple-system, BlinkMacSystemFont, 'Segoe UI', sans-serif" font-size="11" fill="#1d1d1f">Ethereum</text>
      <text x="330" y="0" font-family="-apple-system, BlinkMacSystemFont, 'Segoe UI', sans-serif" font-size="8" fill="#86868b" letter-spacing="0.6">BLOCK</text>
      <text x="330" y="14" font-family="-apple-system, BlinkMacSystemFont, 'Segoe UI', sans-serif" font-size="11" fill="#1d1d1f">#21,842,306</text>
    </g>

    <!-- Net worth -->
    <g transform="translate(24, 100)">
      <rect x="0" y="0" width="464" height="56" rx="8" fill="#f5f5f7"/>
      <text x="16" y="18" font-family="-apple-system, BlinkMacSystemFont, 'Segoe UI', sans-serif" font-size="8" fill="#86868b" letter-spacing="0.6">TOTAL NET WORTH</text>
      <text x="16" y="42" font-family="-apple-system, BlinkMacSystemFont, 'Segoe UI', sans-serif" font-size="28" font-weight="600" fill="#1d1d1f" letter-spacing="-0.5">$142,502<tspan fill="#86868b" font-size="28" opacity="0.3">.88</tspan></text>
    </g>

    <!-- Holdings section -->
    <g transform="translate(24, 176)">
      <text x="0" y="0" font-family="-apple-system, BlinkMacSystemFont, 'Segoe UI', sans-serif" font-size="8" fill="#86868b" letter-spacing="0.6">HOLDINGS</text>
      <line x1="0" y1="12" x2="464" y2="12" stroke="#e5e5ea" stroke-width="0.5"/>

      <!-- ETH row — exact eth.svg icon -->
      <g transform="translate(0, 20) scale(0.625)">
        <g fill="#000000" fill-rule="evenodd">
          <path d="M16 32C7.163 32 0 24.837 0 16S7.163 0 16 0s16 7.163 16 16-7.163 16-16 16zm7.994-15.781L16.498 4 9 16.22l7.498 4.353 7.496-4.354zM24 17.616l-7.502 4.351L9 17.617l7.498 10.378L24 17.616z"/>
          <g fill-rule="nonzero">
            <path fill-opacity=".298" d="M16.498 4v8.87l7.497 3.35zm0 17.968v6.027L24 17.616z"/>
            <path fill-opacity=".801" d="M16.498 20.573l7.497-4.353-7.497-3.348z"/>
            <path fill-opacity=".298" d="M9 16.22l7.498 4.353v-7.701z"/>
          </g>
        </g>
      </g>
      <text x="26" y="28" font-family="-apple-system, BlinkMacSystemFont, 'Segoe UI', sans-serif" font-size="12" font-weight="500" fill="#1d1d1f">Ethereum</text>
      <text x="26" y="40" font-family="-apple-system, BlinkMacSystemFont, 'Segoe UI', sans-serif" font-size="9" fill="#86868b">32.4500 ETH</text>
      <text x="440" y="34" text-anchor="end" font-family="-apple-system, BlinkMacSystemFont, 'Segoe UI', sans-serif" font-size="12" fill="#1d1d1f">$84,120.00</text>

      <line x1="0" y1="50" x2="464" y2="50" stroke="#e5e5ea" stroke-width="0.3"/>

      <!-- USDC row — exact usdc.svg icon -->
      <g transform="translate(0, 58) scale(0.625)">
        <g fill="none">
          <circle fill="#3E73C4" cx="16" cy="16" r="16"/>
          <g fill="#FFF">
            <path d="M20.022 18.124c0-2.124-1.28-2.852-3.84-3.156-1.828-.243-2.193-.728-2.193-1.578 0-.85.61-1.396 1.828-1.396 1.097 0 1.707.364 2.011 1.275a.458.458 0 00.427.303h.975a.416.416 0 00.427-.425v-.06a3.04 3.04 0 00-2.743-2.489V9.142c0-.243-.183-.425-.487-.486h-.915c-.243 0-.426.182-.487.486v1.396c-1.829.242-2.986 1.456-2.986 2.974 0 2.002 1.218 2.791 3.778 3.095 1.707.303 2.255.668 2.255 1.639 0 .97-.853 1.638-2.011 1.638-1.585 0-2.133-.667-2.316-1.578-.06-.242-.244-.364-.427-.364h-1.036a.416.416 0 00-.426.425v.06c.243 1.518 1.219 2.61 3.23 2.914v1.457c0 .242.183.425.487.485h.915c.243 0 .426-.182.487-.485V21.34c1.829-.303 3.047-1.578 3.047-3.217z"/>
            <path d="M12.892 24.497c-4.754-1.7-7.192-6.98-5.424-11.653.914-2.55 2.925-4.491 5.424-5.402.244-.121.365-.303.365-.607v-.85c0-.242-.121-.424-.365-.485-.061 0-.183 0-.244.06a10.895 10.895 0 00-7.13 13.717c1.096 3.4 3.717 6.01 7.13 7.102.244.121.488 0 .548-.243.061-.06.061-.122.061-.243v-.85c0-.182-.182-.424-.365-.546zm6.46-18.936c-.244-.122-.488 0-.548.242-.061.061-.061.122-.061.243v.85c0 .243.182.485.365.607 4.754 1.7 7.192 6.98 5.424 11.653-.914 2.55-2.925 4.491-5.424 5.402-.244.121-.365.303-.365.607v.85c0 .242.121.424.365.485.061 0 .183 0 .244-.06a10.895 10.895 0 007.13-13.717c-1.096-3.46-3.778-6.07-7.13-7.162z"/>
          </g>
        </g>
      </g>
      <text x="26" y="66" font-family="-apple-system, BlinkMacSystemFont, 'Segoe UI', sans-serif" font-size="12" font-weight="500" fill="#1d1d1f">USD Coin</text>
      <text x="26" y="78" font-family="-apple-system, BlinkMacSystemFont, 'Segoe UI', sans-serif" font-size="9" fill="#86868b">58,382.88 USDC</text>
      <text x="440" y="72" text-anchor="end" font-family="-apple-system, BlinkMacSystemFont, 'Segoe UI', sans-serif" font-size="12" fill="#1d1d1f">$58,382.88</text>

      <line x1="0" y1="88" x2="464" y2="88" stroke="#e5e5ea" stroke-width="0.3"/>

      <!-- Total -->
      <rect x="0" y="94" width="464" height="24" rx="4" fill="#f5f5f7"/>
      <text x="330" y="110" font-family="-apple-system, BlinkMacSystemFont, 'Segoe UI', sans-serif" font-size="10" fill="#86868b">Total</text>
      <text x="440" y="110" text-anchor="end" font-family="-apple-system, BlinkMacSystemFont, 'Segoe UI', sans-serif" font-size="11" font-weight="600" fill="#003499">$142,502.88</text>
    </g>

    <!-- Recent transactions -->
    <g transform="translate(24, 310)">
      <text x="0" y="0" font-family="-apple-system, BlinkMacSystemFont, 'Segoe UI', sans-serif" font-size="8" fill="#86868b" letter-spacing="0.6">RECENT TRANSACTIONS</text>
      <line x1="0" y1="12" x2="464" y2="12" stroke="#e5e5ea" stroke-width="0.5"/>

      <text x="0" y="28" font-family="-apple-system, BlinkMacSystemFont, 'Segoe UI', sans-serif" font-size="11" fill="#1d1d1f">Received ETH</text>
      <text x="0" y="40" font-family="-apple-system, BlinkMacSystemFont, 'Segoe UI', sans-serif" font-size="9" fill="#86868b">Mar 15 from vitalik.eth</text>
      <text x="440" y="28" text-anchor="end" font-family="-apple-system, BlinkMacSystemFont, 'Segoe UI', sans-serif" font-size="11" fill="#1d1d1f">+$4,280.00</text>

      <line x1="0" y1="50" x2="464" y2="50" stroke="#e5e5ea" stroke-width="0.2"/>

      <text x="0" y="66" font-family="-apple-system, BlinkMacSystemFont, 'Segoe UI', sans-serif" font-size="11" fill="#1d1d1f">Sent USDC</text>
      <text x="0" y="78" font-family="-apple-system, BlinkMacSystemFont, 'Segoe UI', sans-serif" font-size="9" fill="#86868b">Mar 12 to nick.eth</text>
      <text x="440" y="66" text-anchor="end" font-family="-apple-system, BlinkMacSystemFont, 'Segoe UI', sans-serif" font-size="11" fill="#1d1d1f">-$2,500.00</text>

      <line x1="0" y1="88" x2="464" y2="88" stroke="#e5e5ea" stroke-width="0.2"/>

      <text x="0" y="104" font-family="-apple-system, BlinkMacSystemFont, 'Segoe UI', sans-serif" font-size="11" fill="#1d1d1f">Uniswap Swap</text>
      <text x="0" y="116" font-family="-apple-system, BlinkMacSystemFont, 'Segoe UI', sans-serif" font-size="9" fill="#86868b">Mar 10 via uniswap.eth</text>
      <text x="440" y="104" text-anchor="end" font-family="-apple-system, BlinkMacSystemFont, 'Segoe UI', sans-serif" font-size="11" fill="#1d1d1f">$1,847.32</text>
    </g>

    <!-- Card footer -->
    <line x1="24" y1="448" x2="488" y2="448" stroke="#e5e5ea" stroke-width="0.5"/>
    <g transform="translate(24, 462)">
      <!-- QR code -->
      <rect x="0" y="0" width="40" height="40" rx="3" fill="#f5f5f7"/>
      <g transform="translate(4, 4)">
        <rect x="0" y="0" width="11" height="11" rx="1.5" fill="#1d1d1f" opacity="0.12"/>
        <rect x="21" y="0" width="11" height="11" rx="1.5" fill="#1d1d1f" opacity="0.12"/>
        <rect x="0" y="21" width="11" height="11" rx="1.5" fill="#1d1d1f" opacity="0.12"/>
        <rect x="3" y="3" width="5" height="5" rx="0.75" fill="#1d1d1f" opacity="0.25"/>
        <rect x="24" y="3" width="5" height="5" rx="0.75" fill="#1d1d1f" opacity="0.25"/>
        <rect x="3" y="24" width="5" height="5" rx="0.75" fill="#1d1d1f" opacity="0.25"/>
        <rect x="14" y="14" width="5" height="5" rx="0.5" fill="#1d1d1f" opacity="0.08"/>
        <rect x="22" y="14" width="5" height="5" rx="0.5" fill="#1d1d1f" opacity="0.08"/>
        <rect x="14" y="22" width="5" height="5" rx="0.5" fill="#1d1d1f" opacity="0.08"/>
        <rect x="22" y="22" width="10" height="10" rx="0.5" fill="#1d1d1f" opacity="0.08"/>
      </g>
      <text x="50" y="13" font-family="-apple-system, BlinkMacSystemFont, 'Segoe UI', sans-serif" font-size="10" font-weight="500" fill="#1d1d1f">Verify this statement</text>
      <text x="50" y="26" font-family="-apple-system, BlinkMacSystemFont, 'Segoe UI', sans-serif" font-size="9" fill="#003499">fundslip.xyz/verify</text>
      <text x="50" y="38" font-family="'SF Mono', monospace" font-size="7" fill="#86868b">EIP-712 Signed · No server involved</text>
    </g>

    <text x="24" y="528" font-family="-apple-system, BlinkMacSystemFont, 'Segoe UI', sans-serif" font-size="8" fill="#86868b">Fundslip — fundslip.xyz</text>
    <text x="488" y="528" text-anchor="end" font-family="-apple-system, BlinkMacSystemFont, 'Segoe UI', sans-serif" font-size="8" fill="#86868b">March 25, 2026</text>
  </g>

  <!-- Bottom left URL -->
  <text x="72" y="598" font-family="-apple-system, BlinkMacSystemFont, 'Segoe UI', sans-serif" font-size="13" fill="#86868b">fundslip.xyz</text>
</svg>
