<svg xmlns="http://www.w3.org/2000/svg" viewBox="0 0 1200 600" fill="none">
  <rect width="1200" height="600" fill="#ffffff"/>

  <g transform="translate(40, 30)">
    <rect x="0" y="0" width="1120" height="540" rx="16" fill="#ffffff" stroke="#e5e5ea" stroke-width="1"/>

    <!-- Header -->
    <g transform="translate(36, 30)">
      <!-- Logo icon -->
      <rect x="4" y="0" width="18" height="22" rx="3.5" fill="#003499" opacity="0.15"/>
      <rect x="0" y="4" width="18" height="22" rx="3.5" fill="#003499"/>
      <rect x="4" y="10" width="10" height="1.5" rx="0.75" fill="#ffffff" opacity="0.8"/>
      <rect x="4" y="14" width="6.5" height="1.2" rx="0.6" fill="#ffffff" opacity="0.3"/>
      <rect x="4" y="17.5" width="8" height="1.2" rx="0.6" fill="#ffffff" opacity="0.3"/>

      <text x="28" y="19" font-family="-apple-system, BlinkMacSystemFont, 'Segoe UI', sans-serif" font-size="20" font-weight="600" fill="#1d1d1f" letter-spacing="-0.5">Fundslip</text>
      <text x="140" y="19" font-family="-apple-system, BlinkMacSystemFont, 'Segoe UI', sans-serif" font-size="12" fill="#86868b">Asset Verification Report</text>

      <!-- Verified pill -->
      <rect x="940" y="2" width="80" height="22" rx="11" fill="#85f8c4" opacity="0.15"/>
      <circle cx="955" cy="13" r="3.5" fill="#85f8c4"/>
      <path d="M953,13 L954.2,14.2 L957,11.4" stroke="#003499" stroke-width="1.2" stroke-linecap="round" stroke-linejoin="round" fill="none"/>
      <text x="963" y="17" font-family="-apple-system, BlinkMacSystemFont, 'Segoe UI', sans-serif" font-size="10" font-weight="500" fill="#059669" letter-spacing="0.5">VERIFIED</text>
    </g>

    <line x1="36" y1="68" x2="1084" y2="68" stroke="#e5e5ea" stroke-width="0.8"/>

    <!-- Account details -->
    <g transform="translate(36, 88)">
      <text x="0" y="0" font-family="-apple-system, BlinkMacSystemFont, 'Segoe UI', sans-serif" font-size="9" fill="#86868b" letter-spacing="0.8">ACCOUNT</text>
      <text x="0" y="18" font-family="monospace" font-size="13" fill="#1d1d1f">sshdopey.eth</text>

      <text x="240" y="0" font-family="-apple-system, BlinkMacSystemFont, 'Segoe UI', sans-serif" font-size="9" fill="#86868b" letter-spacing="0.8">NETWORK</text>
      <text x="240" y="18" font-family="-apple-system, BlinkMacSystemFont, 'Segoe UI', sans-serif" font-size="13" fill="#1d1d1f">Ethereum Mainnet</text>

      <text x="500" y="0" font-family="-apple-system, BlinkMacSystemFont, 'Segoe UI', sans-serif" font-size="9" fill="#86868b" letter-spacing="0.8">BLOCK</text>
      <text x="500" y="18" font-family="-apple-system, BlinkMacSystemFont, 'Segoe UI', sans-serif" font-size="13" fill="#1d1d1f">#19,452,102</text>

      <text x="720" y="0" font-family="-apple-system, BlinkMacSystemFont, 'Segoe UI', sans-serif" font-size="9" fill="#86868b" letter-spacing="0.8">PERIOD</text>
      <text x="720" y="18" font-family="-apple-system, BlinkMacSystemFont, 'Segoe UI', sans-serif" font-size="13" fill="#1d1d1f">Feb 15 - Mar 15, 2025</text>
    </g>

    <!-- Net worth box -->
    <g transform="translate(36, 134)">
      <rect x="0" y="0" width="1048" height="80" rx="10" fill="#f5f5f7"/>
      <text x="24" y="26" font-family="-apple-system, BlinkMacSystemFont, 'Segoe UI', sans-serif" font-size="10" fill="#86868b" letter-spacing="0.8">TOTAL NET WORTH</text>
      <text x="24" y="60" font-family="-apple-system, BlinkMacSystemFont, 'Segoe UI', sans-serif" font-size="38" font-weight="600" fill="#1d1d1f" letter-spacing="-0.5">$142,502<tspan fill="#86868b" opacity="0.3">.88</tspan></text>
    </g>

    <!-- Holdings -->
    <g transform="translate(36, 238)">
      <text x="0" y="0" font-family="-apple-system, BlinkMacSystemFont, 'Segoe UI', sans-serif" font-size="9" fill="#86868b" letter-spacing="0.8">DIGITAL ASSET HOLDINGS</text>

      <!-- Table header -->
      <line x1="0" y1="14" x2="1048" y2="14" stroke="#e5e5ea" stroke-width="0.6"/>
      <text x="0" y="30" font-family="-apple-system, BlinkMacSystemFont, 'Segoe UI', sans-serif" font-size="9" fill="#86868b" letter-spacing="0.5">ASSET</text>
      <text x="580" y="30" text-anchor="end" font-family="-apple-system, BlinkMacSystemFont, 'Segoe UI', sans-serif" font-size="9" fill="#86868b" letter-spacing="0.5">QUANTITY</text>
      <text x="790" y="30" text-anchor="end" font-family="-apple-system, BlinkMacSystemFont, 'Segoe UI', sans-serif" font-size="9" fill="#86868b" letter-spacing="0.5">UNIT PRICE</text>
      <text x="1024" y="30" text-anchor="end" font-family="-apple-system, BlinkMacSystemFont, 'Segoe UI', sans-serif" font-size="9" fill="#86868b" letter-spacing="0.5">VALUE</text>
      <line x1="0" y1="38" x2="1048" y2="38" stroke="#e5e5ea" stroke-width="0.4"/>

      <!-- ETH row -->
      <g transform="translate(0, 48)">
        <g transform="scale(0.625)">
          <g fill="#000000" fill-rule="evenodd">
            <path d="M16 32C7.163 32 0 24.837 0 16S7.163 0 16 0s16 7.163 16 16-7.163 16-16 16zm7.994-15.781L16.498 4 9 16.22l7.498 4.353 7.496-4.354zM24 17.616l-7.502 4.351L9 17.617l7.498 10.378L24 17.616z"/>
            <g fill-rule="nonzero">
              <path fill-opacity=".298" d="M16.498 4v8.87l7.497 3.35zm0 17.968v6.027L24 17.616z"/>
              <path fill-opacity=".801" d="M16.498 20.573l7.497-4.353-7.497-3.348z"/>
              <path fill-opacity=".298" d="M9 16.22l7.498 4.353v-7.701z"/>
            </g>
          </g>
        </g>

        <text x="30" y="14" font-family="-apple-system, BlinkMacSystemFont, 'Segoe UI', sans-serif" font-size="14" font-weight="500" fill="#1d1d1f">Ethereum (ETH)</text>
        <text x="580" y="14" text-anchor="end" font-family="-apple-system, BlinkMacSystemFont, 'Segoe UI', sans-serif" font-size="13" fill="#1d1d1f">32.4500</text>
        <text x="790" y="14" text-anchor="end" font-family="-apple-system, BlinkMacSystemFont, 'Segoe UI', sans-serif" font-size="13" fill="#1d1d1f">$2,593.20</text>
        <text x="1024" y="14" text-anchor="end" font-family="-apple-system, BlinkMacSystemFont, 'Segoe UI', sans-serif" font-size="13" fill="#1d1d1f">$84,120.00</text>
      </g>

      <line x1="0" y1="72" x2="1048" y2="72" stroke="#e5e5ea" stroke-width="0.3"/>

      <!-- USDC row -->
      <g transform="translate(0, 82)">
        <g transform="scale(0.625)">
          <g fill="none">
            <circle fill="#3E73C4" cx="16" cy="16" r="16"/>
            <g fill="#FFF">
              <path d="M20.022 18.124c0-2.124-1.28-2.852-3.84-3.156-1.828-.243-2.193-.728-2.193-1.578 0-.85.61-1.396 1.828-1.396 1.097 0 1.707.364 2.011 1.275a.458.458 0 00.427.303h.975a.416.416 0 00.427-.425v-.06a3.04 3.04 0 00-2.743-2.489V9.142c0-.243-.183-.425-.487-.486h-.915c-.243 0-.426.182-.487.486v1.396c-1.829.242-2.986 1.456-2.986 2.974 0 2.002 1.218 2.791 3.778 3.095 1.707.303 2.255.668 2.255 1.639 0 .97-.853 1.638-2.011 1.638-1.585 0-2.133-.667-2.316-1.578-.06-.242-.244-.364-.427-.364h-1.036a.416.416 0 00-.426.425v.06c.243 1.518 1.219 2.61 3.23 2.914v1.457c0 .242.183.425.487.485h.915c.243 0 .426-.182.487-.485V21.34c1.829-.303 3.047-1.578 3.047-3.217z"/>
              <path d="M12.892 24.497c-4.754-1.7-7.192-6.98-5.424-11.653.914-2.55 2.925-4.491 5.424-5.402.244-.121.365-.303.365-.607v-.85c0-.242-.121-.424-.365-.485-.061 0-.183 0-.244.06a10.895 10.895 0 00-7.13 13.717c1.096 3.4 3.717 6.01 7.13 7.102.244.121.488 0 .548-.243.061-.06.061-.122.061-.243v-.85c0-.182-.182-.424-.365-.546zm6.46-18.936c-.244-.122-.488 0-.548.242-.061.061-.061.122-.061.243v.85c0 .243.182.485.365.607 4.754 1.7 7.192 6.98 5.424 11.653-.914 2.55-2.925 4.491-5.424 5.402-.244.121-.365.303-.365.607v.85c0 .242.121.424.365.485.061 0 .183 0 .244-.06a10.895 10.895 0 007.13-13.717c-1.096-3.46-3.778-6.07-7.13-7.162z"/>
            </g>
          </g>
        </g>

        <text x="30" y="14" font-family="-apple-system, BlinkMacSystemFont, 'Segoe UI', sans-serif" font-size="14" font-weight="500" fill="#1d1d1f">USD Coin (USDC)</text>
        <text x="580" y="14" text-anchor="end" font-family="-apple-system, BlinkMacSystemFont, 'Segoe UI', sans-serif" font-size="13" fill="#1d1d1f">58,382.88</text>
        <text x="790" y="14" text-anchor="end" font-family="-apple-system, BlinkMacSystemFont, 'Segoe UI', sans-serif" font-size="13" fill="#1d1d1f">$1.00</text>
        <text x="1024" y="14" text-anchor="end" font-family="-apple-system, BlinkMacSystemFont, 'Segoe UI', sans-serif" font-size="13" fill="#1d1d1f">$58,382.88</text>
      </g>

      <!-- Total row -->
      <line x1="0" y1="106" x2="1048" y2="106" stroke="#e5e5ea" stroke-width="0.4"/>
      <rect x="0" y="108" width="1048" height="28" rx="4" fill="#f5f5f7"/>
      <text x="790" y="126" text-anchor="end" font-family="-apple-system, BlinkMacSystemFont, 'Segoe UI', sans-serif" font-size="12" font-weight="500" fill="#86868b">Total</text>
      <text x="1024" y="126" text-anchor="end" font-family="-apple-system, BlinkMacSystemFont, 'Segoe UI', sans-serif" font-size="13" font-weight="600" fill="#003499">$142,502.88</text>
    </g>

    <!-- Verification footer -->
    <line x1="36" y1="420" x2="1084" y2="420" stroke="#e5e5ea" stroke-width="0.6"/>
    <g transform="translate(36, 436)">
      <!-- QR code representation -->
      <rect x="0" y="0" width="56" height="56" rx="4" fill="#f5f5f7"/>
      <g transform="translate(6, 6)">
        <rect x="0" y="0" width="16" height="16" rx="2" fill="#1d1d1f" opacity="0.12"/>
        <rect x="28" y="0" width="16" height="16" rx="2" fill="#1d1d1f" opacity="0.12"/>
        <rect x="0" y="28" width="16" height="16" rx="2" fill="#1d1d1f" opacity="0.12"/>
        <rect x="20" y="20" width="8" height="8" rx="1" fill="#1d1d1f" opacity="0.08"/>
        <rect x="30" y="20" width="8" height="8" rx="1" fill="#1d1d1f" opacity="0.08"/>
        <rect x="20" y="30" width="8" height="8" rx="1" fill="#1d1d1f" opacity="0.08"/>
        <rect x="30" y="30" width="14" height="14" rx="1" fill="#1d1d1f" opacity="0.08"/>
        <rect x="4" y="4" width="8" height="8" rx="1" fill="#1d1d1f" opacity="0.25"/>
        <rect x="32" y="4" width="8" height="8" rx="1" fill="#1d1d1f" opacity="0.25"/>
        <rect x="4" y="32" width="8" height="8" rx="1" fill="#1d1d1f" opacity="0.25"/>
      </g>

      <text x="72" y="16" font-family="-apple-system, BlinkMacSystemFont, 'Segoe UI', sans-serif" font-size="12" font-weight="500" fill="#1d1d1f">Verify this statement</text>
      <text x="72" y="32" font-family="-apple-system, BlinkMacSystemFont, 'Segoe UI', sans-serif" font-size="11" fill="#003499">fundslip.xyz/verify</text>
      <text x="72" y="50" font-family="monospace" font-size="8" fill="#86868b">Fingerprint: 9qxJb7qCd3kR8mL2pW5xN6...T9uV2wX4yZ6aB8</text>

      <text x="1024" y="16" text-anchor="end" font-family="-apple-system, BlinkMacSystemFont, 'Segoe UI', sans-serif" font-size="10" fill="#86868b">EIP-712 Signed</text>
      <text x="1024" y="32" text-anchor="end" font-family="-apple-system, BlinkMacSystemFont, 'Segoe UI', sans-serif" font-size="10" fill="#86868b">Independently verifiable</text>
      <text x="1024" y="50" text-anchor="end" font-family="-apple-system, BlinkMacSystemFont, 'Segoe UI', sans-serif" font-size="10" fill="#86868b">No server involved</text>
    </g>

    <!-- Page footer -->
    <text x="36" y="524" font-family="-apple-system, BlinkMacSystemFont, 'Segoe UI', sans-serif" font-size="9" fill="#86868b">Fundslip — fundslip.xyz</text>
    <text x="1084" y="524" text-anchor="end" font-family="-apple-system, BlinkMacSystemFont, 'Segoe UI', sans-serif" font-size="9" fill="#86868b">March 15, 2025</text>
  </g>
</svg>
