<svg xmlns="http://www.w3.org/2000/svg" viewBox="0 0 1200 600" fill="none">
  <rect width="1200" height="600" fill="#ffffff"/>

  <g transform="translate(40, 30)">
    <rect x="0" y="0" width="1120" height="540" rx="16" fill="#ffffff" stroke="#e5e5ea" stroke-width="1"/>

    <!-- Header -->
    <g transform="translate(36, 30)">
      <!-- Logo icon -->
      <rect x="4" y="0" width="18" height="22" rx="3.5" fill="#003499" opacity="0.15"/>
      <rect x="0" y="4" width="18" height="22" rx="3.5" fill="#003499"/>
      <rect x="4" y="10" width="10" height="1.5" rx="0.75" fill="#ffffff" opacity="0.8"/>
      <rect x="4" y="14" width="6.5" height="1.2" rx="0.6" fill="#ffffff" opacity="0.3"/>
      <rect x="4" y="17.5" width="8" height="1.2" rx="0.6" fill="#ffffff" opacity="0.3"/>

      <text x="28" y="19" font-family="-apple-system, BlinkMacSystemFont, 'Segoe UI', sans-serif" font-size="20" font-weight="600" fill="#1d1d1f" letter-spacing="-0.5">Fundslip</text>
      <text x="140" y="19" font-family="-apple-system, BlinkMacSystemFont, 'Segoe UI', sans-serif" font-size="12" fill="#86868b">Asset Verification Report</text>

      <!-- Verified pill -->
      <rect x="940" y="2" width="80" height="22" rx="11" fill="#85f8c4" opacity="0.15"/>
      <circle cx="955" cy="13" r="3.5" fill="#85f8c4"/>
      <path d="M953,13 L954.2,14.2 L957,11.4" stroke="#003499" stroke-width="1.2" stroke-linecap="round" stroke-linejoin="round" fill="none"/>
      <text x="963" y="17" font-family="-apple-system, BlinkMacSystemFont, 'Segoe UI', sans-serif" font-size="10" font-weight="500" fill="#059669" letter-spacing="0.5">VERIFIED</text>
    </g>

    <line x1="36" y1="68" x2="1084" y2="68" stroke="#e5e5ea" stroke-width="0.8"/>

    <!-- Account details -->
    <g transform="translate(36, 88)">
      <text x="0" y="0" font-family="-apple-system, BlinkMacSystemFont, 'Segoe UI', sans-serif" font-size="9" fill="#86868b" letter-spacing="0.8">ACCOUNT</text>
      <text x="0" y="18" font-family="monospace" font-size="13" fill="#1d1d1f">0x4a7e...2f1b</text>

      <text x="240" y="0" font-family="-apple-system, BlinkMacSystemFont, 'Segoe UI', sans-serif" font-size="9" fill="#86868b" letter-spacing="0.8">NETWORK</text>
      <text x="240" y="18" font-family="-apple-system, BlinkMacSystemFont, 'Segoe UI', sans-serif" font-size="13" fill="#1d1d1f">Ethereum Mainnet</text>

      <text x="500" y="0" font-family="-apple-system, BlinkMacSystemFont, 'Segoe UI', sans-serif" font-size="9" fill="#86868b" letter-spacing="0.8">BLOCK</text>
      <text x="500" y="18" font-family="-apple-system, BlinkMacSystemFont, 'Segoe UI', sans-serif" font-size="13" fill="#1d1d1f">#19,452,102</text>

      <text x="720" y="0" font-family="-apple-system, BlinkMacSystemFont, 'Segoe UI', sans-serif" font-size="9" fill="#86868b" letter-spacing="0.8">PERIOD</text>
      <text x="720" y="18" font-family="-apple-system, BlinkMacSystemFont, 'Segoe UI', sans-serif" font-size="13" fill="#1d1d1f">Feb 15 - Mar 15, 2025</text>
    </g>

    <!-- Net worth box -->
    <g transform="translate(36, 134)">
      <rect x="0" y="0" width="1048" height="80" rx="10" fill="#f5f5f7"/>
      <text x="24" y="26" font-family="-apple-system, BlinkMacSystemFont, 'Segoe UI', sans-serif" font-size="10" fill="#86868b" letter-spacing="0.8">TOTAL NET WORTH</text>
      <text x="24" y="60" font-family="-apple-system, BlinkMacSystemFont, 'Segoe UI', sans-serif" font-size="38" font-weight="600" fill="#1d1d1f" letter-spacing="-0.5">$142,502<tspan fill="#86868b" opacity="0.3">.88</tspan></text>
    </g>

    <!-- Holdings -->
    <g transform="translate(36, 238)">
      <text x="0" y="0" font-family="-apple-system, BlinkMacSystemFont, 'Segoe UI', sans-serif" font-size="9" fill="#86868b" letter-spacing="0.8">DIGITAL ASSET HOLDINGS</text>

      <!-- Table header -->
      <line x1="0" y1="14" x2="1048" y2="14" stroke="#e5e5ea" stroke-width="0.6"/>
      <text x="0" y="30" font-family="-apple-system, BlinkMacSystemFont, 'Segoe UI', sans-serif" font-size="9" fill="#86868b" letter-spacing="0.5">ASSET</text>
      <text x="580" y="30" text-anchor="end" font-family="-apple-system, BlinkMacSystemFont, 'Segoe UI', sans-serif" font-size="9" fill="#86868b" letter-spacing="0.5">QUANTITY</text>
      <text x="790" y="30" text-anchor="end" font-family="-apple-system, BlinkMacSystemFont, 'Segoe UI', sans-serif" font-size="9" fill="#86868b" letter-spacing="0.5">UNIT PRICE</text>
      <text x="1024" y="30" text-anchor="end" font-family="-apple-system, BlinkMacSystemFont, 'Segoe UI', sans-serif" font-size="9" fill="#86868b" letter-spacing="0.5">VALUE</text>
      <line x1="0" y1="38" x2="1048" y2="38" stroke="#e5e5ea" stroke-width="0.4"/>

      <!-- ETH row -->
      <g transform="translate(0, 48)">
        <circle cx="12" cy="10" r="10" fill="#627EEA"/>
        <path d="M12,3 L7,11 L12,9 L17,11 Z" fill="#ffffff" opacity="0.9"/>
        <path d="M12,9 L7,11 L12,14 L17,11 Z" fill="#ffffff" opacity="0.6"/>
        <path d="M12,14 L7,11 L12,17 L17,11 Z" fill="#ffffff" opacity="0.6"/>

        <text x="30" y="14" font-family="-apple-system, BlinkMacSystemFont, 'Segoe UI', sans-serif" font-size="14" font-weight="500" fill="#1d1d1f">Ethereum (ETH)</text>
        <text x="580" y="14" text-anchor="end" font-family="-apple-system, BlinkMacSystemFont, 'Segoe UI', sans-serif" font-size="13" fill="#1d1d1f">32.4500</text>
        <text x="790" y="14" text-anchor="end" font-family="-apple-system, BlinkMacSystemFont, 'Segoe UI', sans-serif" font-size="13" fill="#1d1d1f">$2,593.20</text>
        <text x="1024" y="14" text-anchor="end" font-family="-apple-system, BlinkMacSystemFont, 'Segoe UI', sans-serif" font-size="13" fill="#1d1d1f">$84,120.00</text>
      </g>

      <line x1="0" y1="72" x2="1048" y2="72" stroke="#e5e5ea" stroke-width="0.3"/>

      <!-- USDC row -->
      <g transform="translate(0, 82)">
        <circle cx="12" cy="10" r="10" fill="#2775CA"/>
        <text x="8" y="15" font-family="-apple-system, BlinkMacSystemFont, 'Segoe UI', sans-serif" font-size="12" font-weight="700" fill="#ffffff">$</text>

        <text x="30" y="14" font-family="-apple-system, BlinkMacSystemFont, 'Segoe UI', sans-serif" font-size="14" font-weight="500" fill="#1d1d1f">USD Coin (USDC)</text>
        <text x="580" y="14" text-anchor="end" font-family="-apple-system, BlinkMacSystemFont, 'Segoe UI', sans-serif" font-size="13" fill="#1d1d1f">58,382.88</text>
        <text x="790" y="14" text-anchor="end" font-family="-apple-system, BlinkMacSystemFont, 'Segoe UI', sans-serif" font-size="13" fill="#1d1d1f">$1.00</text>
        <text x="1024" y="14" text-anchor="end" font-family="-apple-system, BlinkMacSystemFont, 'Segoe UI', sans-serif" font-size="13" fill="#1d1d1f">$58,382.88</text>
      </g>

      <!-- Total row -->
      <line x1="0" y1="106" x2="1048" y2="106" stroke="#e5e5ea" stroke-width="0.4"/>
      <rect x="0" y="108" width="1048" height="28" rx="4" fill="#f5f5f7"/>
      <text x="790" y="126" text-anchor="end" font-family="-apple-system, BlinkMacSystemFont, 'Segoe UI', sans-serif" font-size="12" font-weight="500" fill="#86868b">Total</text>
      <text x="1024" y="126" text-anchor="end" font-family="-apple-system, BlinkMacSystemFont, 'Segoe UI', sans-serif" font-size="13" font-weight="600" fill="#003499">$142,502.88</text>
    </g>

    <!-- Verification footer -->
    <line x1="36" y1="420" x2="1084" y2="420" stroke="#e5e5ea" stroke-width="0.6"/>
    <g transform="translate(36, 436)">
      <!-- QR code representation -->
      <rect x="0" y="0" width="56" height="56" rx="4" fill="#f5f5f7"/>
      <g transform="translate(6, 6)">
        <rect x="0" y="0" width="16" height="16" rx="2" fill="#1d1d1f" opacity="0.12"/>
        <rect x="28" y="0" width="16" height="16" rx="2" fill="#1d1d1f" opacity="0.12"/>
        <rect x="0" y="28" width="16" height="16" rx="2" fill="#1d1d1f" opacity="0.12"/>
        <rect x="20" y="20" width="8" height="8" rx="1" fill="#1d1d1f" opacity="0.08"/>
        <rect x="30" y="20" width="8" height="8" rx="1" fill="#1d1d1f" opacity="0.08"/>
        <rect x="20" y="30" width="8" height="8" rx="1" fill="#1d1d1f" opacity="0.08"/>
        <rect x="30" y="30" width="14" height="14" rx="1" fill="#1d1d1f" opacity="0.08"/>
        <rect x="4" y="4" width="8" height="8" rx="1" fill="#1d1d1f" opacity="0.25"/>
        <rect x="32" y="4" width="8" height="8" rx="1" fill="#1d1d1f" opacity="0.25"/>
        <rect x="4" y="32" width="8" height="8" rx="1" fill="#1d1d1f" opacity="0.25"/>
      </g>

      <text x="72" y="16" font-family="-apple-system, BlinkMacSystemFont, 'Segoe UI', sans-serif" font-size="12" font-weight="500" fill="#1d1d1f">Verify this statement</text>
      <text x="72" y="32" font-family="-apple-system, BlinkMacSystemFont, 'Segoe UI', sans-serif" font-size="11" fill="#003499">fundslip.xyz/verify</text>
      <text x="72" y="50" font-family="monospace" font-size="8" fill="#86868b">Fingerprint: 9qxJb7qCd3kR8mL2pW5xN6...T9uV2wX4yZ6aB8</text>

      <text x="1024" y="16" text-anchor="end" font-family="-apple-system, BlinkMacSystemFont, 'Segoe UI', sans-serif" font-size="10" fill="#86868b">EIP-712 Signed</text>
      <text x="1024" y="32" text-anchor="end" font-family="-apple-system, BlinkMacSystemFont, 'Segoe UI', sans-serif" font-size="10" fill="#86868b">Independently verifiable</text>
      <text x="1024" y="50" text-anchor="end" font-family="-apple-system, BlinkMacSystemFont, 'Segoe UI', sans-serif" font-size="10" fill="#86868b">No server involved</text>
    </g>

    <!-- Page footer -->
    <text x="36" y="524" font-family="-apple-system, BlinkMacSystemFont, 'Segoe UI', sans-serif" font-size="9" fill="#86868b">Fundslip -- fundslip.xyz</text>
    <text x="1084" y="524" text-anchor="end" font-family="-apple-system, BlinkMacSystemFont, 'Segoe UI', sans-serif" font-size="9" fill="#86868b">March 15, 2025</text>
  </g>
</svg>
