<svg xmlns="http://www.w3.org/2000/svg" viewBox="0 0 1500 500" fill="none">
  <rect width="1500" height="500" fill="#ffffff"/>

  <!-- Left side: brand + headline (positioned to avoid profile photo overlap in bottom-left) -->
  <g transform="translate(100, 80)">
    <!-- Logo mark -->
    <rect x="5" y="0" width="40" height="48" rx="6" fill="#003499" opacity="0.15"/>
    <rect x="0" y="5" width="40" height="48" rx="6" fill="#003499"/>
    <rect x="8" y="16" width="22" height="2.5" rx="1.25" fill="#ffffff" opacity="0.8"/>
    <rect x="8" y="22" width="14" height="2" rx="1" fill="#ffffff" opacity="0.3"/>
    <rect x="8" y="27" width="18" height="2" rx="1" fill="#ffffff" opacity="0.3"/>
    <line x1="8" y1="35" x2="20" y2="35" stroke="#85f8c4" stroke-width="1.8" stroke-linecap="round"/>
    <line x1="8" y1="40" x2="15" y2="40" stroke="#85f8c4" stroke-width="1.8" stroke-linecap="round" opacity="0.5"/>
    <circle cx="32" cy="44" r="6.5" fill="#85f8c4"/>
    <path d="M28.5,44 L30.5,46 L35.5,41" stroke="#003499" stroke-width="1.6" stroke-linecap="round" stroke-linejoin="round" fill="none"/>

    <!-- Wordmark -->
    <text x="56" y="38" font-family="-apple-system, BlinkMacSystemFont, 'Segoe UI', sans-serif" font-size="44" font-weight="600" fill="#1d1d1f" letter-spacing="-1">Fundslip</text>

    <!-- Headline -->
    <text x="0" y="108" font-family="-apple-system, BlinkMacSystemFont, 'Segoe UI', sans-serif" font-size="24" fill="#1d1d1f" letter-spacing="-0.3">Bank Statements for Ethereum.</text>
    <text x="0" y="138" font-family="-apple-system, BlinkMacSystemFont, 'Segoe UI', sans-serif" font-size="24" fill="#86868b" letter-spacing="-0.3">Verifiable by anyone.</text>

    <!-- Trust pills -->
    <g transform="translate(0, 170)">
      <rect x="0" y="0" width="120" height="28" rx="14" fill="none" stroke="#e5e5ea" stroke-width="0.75"/>
      <circle cx="15" cy="14" r="2.5" fill="#85f8c4"/>
      <text x="24" y="18" font-family="-apple-system, BlinkMacSystemFont, 'Segoe UI', sans-serif" font-size="12" fill="#86868b">Open Source</text>

      <rect x="132" y="0" width="112" height="28" rx="14" fill="none" stroke="#e5e5ea" stroke-width="0.75"/>
      <circle cx="147" cy="14" r="2.5" fill="#85f8c4"/>
      <text x="156" y="18" font-family="-apple-system, BlinkMacSystemFont, 'Segoe UI', sans-serif" font-size="12" fill="#86868b">No Backend</text>

      <rect x="256" y="0" width="120" height="28" rx="14" fill="none" stroke="#e5e5ea" stroke-width="0.75"/>
      <circle cx="271" cy="14" r="2.5" fill="#85f8c4"/>
      <text x="280" y="18" font-family="-apple-system, BlinkMacSystemFont, 'Segoe UI', sans-serif" font-size="12" fill="#86868b">Free Forever</text>
    </g>
  </g>

  <!-- Right side: statement card -->
  <g transform="translate(880, 40)">
    <rect x="0" y="0" width="480" height="420" rx="16" fill="#ffffff" stroke="#e5e5ea" stroke-width="1"/>

    <!-- Card header -->
    <g transform="translate(24, 22)">
      <rect x="0" y="0" width="13" height="16" rx="3" fill="#003499"/>
      <rect x="3" y="4" width="7" height="1.4" rx="0.7" fill="#ffffff" opacity="0.7"/>
      <rect x="3" y="7.5" width="4.5" height="1.2" rx="0.6" fill="#ffffff" opacity="0.3"/>
      <text x="18" y="12" font-family="-apple-system, BlinkMacSystemFont, 'Segoe UI', sans-serif" font-size="13" font-weight="600" fill="#1d1d1f">Fundslip</text>

      <rect x="360" y="0" width="62" height="18" rx="9" fill="#85f8c4" opacity="0.15"/>
      <circle cx="372" cy="9" r="3" fill="#85f8c4"/>
      <path d="M370,9 L371.2,10.2 L374,7.5" stroke="#003499" stroke-width="1" stroke-linecap="round" stroke-linejoin="round" fill="none"/>
      <text x="379" y="13" font-family="-apple-system, BlinkMacSystemFont, 'Segoe UI', sans-serif" font-size="8" font-weight="500" fill="#003499" letter-spacing="0.5">VERIFIED</text>
    </g>
    <line x1="24" y1="48" x2="456" y2="48" stroke="#e5e5ea" stroke-width="0.5"/>

    <!-- Account -->
    <g transform="translate(24, 60)">
      <text x="0" y="0" font-family="-apple-system, BlinkMacSystemFont, 'Segoe UI', sans-serif" font-size="8" fill="#86868b" letter-spacing="0.6">ACCOUNT</text>
      <text x="0" y="14" font-family="monospace" font-size="11" fill="#1d1d1f">sshdopey.eth</text>
      <text x="170" y="0" font-family="-apple-system, BlinkMacSystemFont, 'Segoe UI', sans-serif" font-size="8" fill="#86868b" letter-spacing="0.6">NETWORK</text>
      <text x="170" y="14" font-family="-apple-system, BlinkMacSystemFont, 'Segoe UI', sans-serif" font-size="11" fill="#1d1d1f">Ethereum</text>
      <text x="310" y="0" font-family="-apple-system, BlinkMacSystemFont, 'Segoe UI', sans-serif" font-size="8" fill="#86868b" letter-spacing="0.6">BLOCK</text>
      <text x="310" y="14" font-family="-apple-system, BlinkMacSystemFont, 'Segoe UI', sans-serif" font-size="11" fill="#1d1d1f">#21,842,306</text>
    </g>

    <!-- Net worth -->
    <g transform="translate(24, 96)">
      <rect x="0" y="0" width="432" height="54" rx="8" fill="#f5f5f7"/>
      <text x="14" y="17" font-family="-apple-system, BlinkMacSystemFont, 'Segoe UI', sans-serif" font-size="8" fill="#86868b" letter-spacing="0.6">TOTAL NET WORTH</text>
      <text x="14" y="42" font-family="-apple-system, BlinkMacSystemFont, 'Segoe UI', sans-serif" font-size="28" font-weight="600" fill="#1d1d1f" letter-spacing="-0.5">$142,502<tspan fill="#86868b" font-size="28" opacity="0.3">.88</tspan></text>
    </g>

    <!-- Holdings -->
    <g transform="translate(24, 168)">
      <text x="0" y="0" font-family="-apple-system, BlinkMacSystemFont, 'Segoe UI', sans-serif" font-size="8" fill="#86868b" letter-spacing="0.6">HOLDINGS</text>
      <line x1="0" y1="12" x2="432" y2="12" stroke="#e5e5ea" stroke-width="0.5"/>

      <!-- ETH -->
      <g transform="translate(2, 22) scale(0.625)">
        <g fill="#000000" fill-rule="evenodd">
          <path d="M16 32C7.163 32 0 24.837 0 16S7.163 0 16 0s16 7.163 16 16-7.163 16-16 16zm7.994-15.781L16.498 4 9 16.22l7.498 4.353 7.496-4.354zM24 17.616l-7.502 4.351L9 17.617l7.498 10.378L24 17.616z"/>
          <g fill-rule="nonzero">
            <path fill-opacity=".298" d="M16.498 4v8.87l7.497 3.35zm0 17.968v6.027L24 17.616z"/>
            <path fill-opacity=".801" d="M16.498 20.573l7.497-4.353-7.497-3.348z"/>
            <path fill-opacity=".298" d="M9 16.22l7.498 4.353v-7.701z"/>
          </g>
        </g>
      </g>
      <text x="28" y="34" font-family="-apple-system, BlinkMacSystemFont, 'Segoe UI', sans-serif" font-size="12" font-weight="500" fill="#1d1d1f">Ethereum</text>
      <text x="28" y="47" font-family="-apple-system, BlinkMacSystemFont, 'Segoe UI', sans-serif" font-size="9" fill="#86868b">32.4500 ETH</text>
      <text x="408" y="40" text-anchor="end" font-family="-apple-system, BlinkMacSystemFont, 'Segoe UI', sans-serif" font-size="12" fill="#1d1d1f">$84,120.00</text>

      <line x1="0" y1="56" x2="432" y2="56" stroke="#e5e5ea" stroke-width="0.3"/>

      <!-- USDC -->
      <g transform="translate(2, 64) scale(0.625)">
        <g fill="none">
          <circle fill="#3E73C4" cx="16" cy="16" r="16"/>
          <g fill="#FFF">
            <path d="M20.022 18.124c0-2.124-1.28-2.852-3.84-3.156-1.828-.243-2.193-.728-2.193-1.578 0-.85.61-1.396 1.828-1.396 1.097 0 1.707.364 2.011 1.275a.458.458 0 00.427.303h.975a.416.416 0 00.427-.425v-.06a3.04 3.04 0 00-2.743-2.489V9.142c0-.243-.183-.425-.487-.486h-.915c-.243 0-.426.182-.487.486v1.396c-1.829.242-2.986 1.456-2.986 2.974 0 2.002 1.218 2.791 3.778 3.095 1.707.303 2.255.668 2.255 1.639 0 .97-.853 1.638-2.011 1.638-1.585 0-2.133-.667-2.316-1.578-.06-.242-.244-.364-.427-.364h-1.036a.416.416 0 00-.426.425v.06c.243 1.518 1.219 2.61 3.23 2.914v1.457c0 .242.183.425.487.485h.915c.243 0 .426-.182.487-.485V21.34c1.829-.303 3.047-1.578 3.047-3.217z"/>
            <path d="M12.892 24.497c-4.754-1.7-7.192-6.98-5.424-11.653.914-2.55 2.925-4.491 5.424-5.402.244-.121.365-.303.365-.607v-.85c0-.242-.121-.424-.365-.485-.061 0-.183 0-.244.06a10.895 10.895 0 00-7.13 13.717c1.096 3.4 3.717 6.01 7.13 7.102.244.121.488 0 .548-.243.061-.06.061-.122.061-.243v-.85c0-.182-.182-.424-.365-.546zm6.46-18.936c-.244-.122-.488 0-.548.242-.061.061-.061.122-.061.243v.85c0 .243.182.485.365.607 4.754 1.7 7.192 6.98 5.424 11.653-.914 2.55-2.925 4.491-5.424 5.402-.244.121-.365.303-.365.607v.85c0 .242.121.424.365.485.061 0 .183 0 .244-.06a10.895 10.895 0 007.13-13.717c-1.096-3.46-3.778-6.07-7.13-7.162z"/>
          </g>
        </g>
      </g>
      <text x="28" y="76" font-family="-apple-system, BlinkMacSystemFont, 'Segoe UI', sans-serif" font-size="12" font-weight="500" fill="#1d1d1f">USD Coin</text>
      <text x="28" y="89" font-family="-apple-system, BlinkMacSystemFont, 'Segoe UI', sans-serif" font-size="9" fill="#86868b">58,382.88 USDC</text>
      <text x="408" y="82" text-anchor="end" font-family="-apple-system, BlinkMacSystemFont, 'Segoe UI', sans-serif" font-size="12" fill="#1d1d1f">$58,382.88</text>

      <line x1="0" y1="98" x2="432" y2="98" stroke="#e5e5ea" stroke-width="0.3"/>

      <rect x="0" y="104" width="432" height="24" rx="4" fill="#f5f5f7"/>
      <text x="300" y="120" font-family="-apple-system, BlinkMacSystemFont, 'Segoe UI', sans-serif" font-size="10" fill="#86868b">Total</text>
      <text x="408" y="120" text-anchor="end" font-family="-apple-system, BlinkMacSystemFont, 'Segoe UI', sans-serif" font-size="11" font-weight="600" fill="#003499">$142,502.88</text>
    </g>

    <!-- Card footer -->
    <line x1="24" y1="320" x2="456" y2="320" stroke="#e5e5ea" stroke-width="0.5"/>
    <g transform="translate(24, 334)">
      <rect x="0" y="0" width="36" height="36" rx="3" fill="#f5f5f7"/>
      <g transform="translate(4, 4)">
        <rect x="0" y="0" width="10" height="10" rx="1.5" fill="#1d1d1f" opacity="0.12"/>
        <rect x="18" y="0" width="10" height="10" rx="1.5" fill="#1d1d1f" opacity="0.12"/>
        <rect x="0" y="18" width="10" height="10" rx="1.5" fill="#1d1d1f" opacity="0.12"/>
        <rect x="2.5" y="2.5" width="5" height="5" rx="0.75" fill="#1d1d1f" opacity="0.25"/>
        <rect x="20.5" y="2.5" width="5" height="5" rx="0.75" fill="#1d1d1f" opacity="0.25"/>
        <rect x="2.5" y="20.5" width="5" height="5" rx="0.75" fill="#1d1d1f" opacity="0.25"/>
        <rect x="12" y="12" width="5" height="5" rx="0.5" fill="#1d1d1f" opacity="0.08"/>
        <rect x="19" y="12" width="5" height="5" rx="0.5" fill="#1d1d1f" opacity="0.08"/>
        <rect x="12" y="19" width="5" height="5" rx="0.5" fill="#1d1d1f" opacity="0.08"/>
        <rect x="19" y="19" width="9" height="9" rx="0.5" fill="#1d1d1f" opacity="0.08"/>
      </g>
      <text x="44" y="12" font-family="-apple-system, BlinkMacSystemFont, 'Segoe UI', sans-serif" font-size="10" font-weight="500" fill="#1d1d1f">Verify this statement</text>
      <text x="44" y="26" font-family="-apple-system, BlinkMacSystemFont, 'Segoe UI', sans-serif" font-size="9" fill="#003499">fundslip.xyz/verify</text>
    </g>

    <text x="24" y="400" font-family="-apple-system, BlinkMacSystemFont, 'Segoe UI', sans-serif" font-size="8" fill="#86868b">Fundslip — fundslip.xyz</text>
    <text x="456" y="400" text-anchor="end" font-family="-apple-system, BlinkMacSystemFont, 'Segoe UI', sans-serif" font-size="8" fill="#86868b">March 25, 2026</text>
  </g>

  <!-- Bottom bar -->
  <line x1="100" y1="470" x2="1400" y2="470" stroke="#e5e5ea" stroke-width="0.5"/>
  <text x="750" y="490" text-anchor="middle" font-family="-apple-system, BlinkMacSystemFont, 'Segoe UI', sans-serif" font-size="11" fill="#86868b" letter-spacing="1.5">EIP-712 SIGNED  ·  TRUSTLESS  ·  MIT LICENSE</text>
</svg>
