<svg xmlns="http://www.w3.org/2000/svg" viewBox="0 0 1280 720" fill="none">
  <rect width="1280" height="720" fill="#ffffff"/>

  <!-- Left side: headline -->
  <g transform="translate(80, 120)">
    <!-- Logo mark + wordmark -->
    <rect x="5" y="0" width="26" height="32" rx="4.5" fill="#003499" opacity="0.15"/>
    <rect x="0" y="5" width="26" height="32" rx="4.5" fill="#003499"/>
    <rect x="6" y="12" width="14" height="2" rx="1" fill="#ffffff" opacity="0.8"/>
    <rect x="6" y="17" width="9" height="1.5" rx="0.75" fill="#ffffff" opacity="0.3"/>
    <rect x="6" y="21.5" width="12" height="1.5" rx="0.75" fill="#ffffff" opacity="0.3"/>
    <line x1="6" y1="28" x2="14" y2="28" stroke="#85f8c4" stroke-width="1.2" stroke-linecap="round"/>
    <circle cx="21" cy="31" r="4.5" fill="#85f8c4"/>
    <path d="M18.5,31 L20,32.5 L23.5,29" stroke="#003499" stroke-width="1.2" stroke-linecap="round" stroke-linejoin="round" fill="none"/>
    <text x="40" y="28" font-family="-apple-system, BlinkMacSystemFont, 'Segoe UI', sans-serif" font-size="26" font-weight="600" fill="#1d1d1f" letter-spacing="-0.5">Fundslip</text>

    <!-- Headline -->
    <text x="0" y="100" font-family="-apple-system, BlinkMacSystemFont, 'Segoe UI', sans-serif" font-size="56" font-weight="600" fill="#1d1d1f" letter-spacing="-1.5">Bank Statements</text>
    <text x="0" y="164" font-family="-apple-system, BlinkMacSystemFont, 'Segoe UI', sans-serif" font-size="56" font-weight="600" fill="#1d1d1f" letter-spacing="-1.5">for Ethereum.</text>
    <text x="0" y="228" font-family="-apple-system, BlinkMacSystemFont, 'Segoe UI', sans-serif" font-size="56" font-weight="600" fill="#86868b" letter-spacing="-1.5">Verifiable.</text>

    <!-- Subtitle -->
    <text x="0" y="284" font-family="-apple-system, BlinkMacSystemFont, 'Segoe UI', sans-serif" font-size="20" fill="#86868b">EIP-712 signed. Anyone can verify. No backend.</text>

    <!-- Trust dots -->
    <g transform="translate(0, 324)">
      <circle cx="5" cy="0" r="3.5" fill="#85f8c4"/>
      <text x="15" y="4" font-family="-apple-system, BlinkMacSystemFont, 'Segoe UI', sans-serif" font-size="15" fill="#86868b">Open Source</text>
      <circle cx="145" cy="0" r="3.5" fill="#85f8c4"/>
      <text x="155" y="4" font-family="-apple-system, BlinkMacSystemFont, 'Segoe UI', sans-serif" font-size="15" fill="#86868b">Free Forever</text>
      <circle cx="280" cy="0" r="3.5" fill="#85f8c4"/>
      <text x="290" y="4" font-family="-apple-system, BlinkMacSystemFont, 'Segoe UI', sans-serif" font-size="15" fill="#86868b">No Backend</text>
    </g>
  </g>

  <!-- Right side: full statement card -->
  <g transform="translate(660, 40)">
    <rect x="0" y="0" width="540" height="640" rx="16" fill="#ffffff" stroke="#e5e5ea" stroke-width="1"/>

    <!-- Card header -->
    <g transform="translate(28, 24)">
      <rect x="0" y="0" width="14" height="17" rx="3" fill="#003499"/>
      <rect x="3" y="4.5" width="8" height="1.5" rx="0.75" fill="#ffffff" opacity="0.7"/>
      <rect x="3" y="8" width="5" height="1.2" rx="0.6" fill="#ffffff" opacity="0.3"/>
      <text x="20" y="13" font-family="-apple-system, BlinkMacSystemFont, 'Segoe UI', sans-serif" font-size="14" font-weight="600" fill="#1d1d1f">Fundslip</text>
      <text x="140" y="13" font-family="-apple-system, BlinkMacSystemFont, 'Segoe UI', sans-serif" font-size="10" fill="#86868b">Asset Verification Report</text>

      <rect x="400" y="0" width="66" height="18" rx="9" fill="#85f8c4" opacity="0.15"/>
      <circle cx="412" cy="9" r="3" fill="#85f8c4"/>
      <path d="M410,9 L411.2,10.2 L414,7.5" stroke="#003499" stroke-width="1" stroke-linecap="round" stroke-linejoin="round" fill="none"/>
      <text x="419" y="13" font-family="-apple-system, BlinkMacSystemFont, 'Segoe UI', sans-serif" font-size="8" font-weight="500" fill="#003499" letter-spacing="0.5">VERIFIED</text>
    </g>
    <line x1="28" y1="52" x2="512" y2="52" stroke="#e5e5ea" stroke-width="0.5"/>

    <!-- Account details -->
    <g transform="translate(28, 66)">
      <text x="0" y="0" font-family="-apple-system, BlinkMacSystemFont, 'Segoe UI', sans-serif" font-size="8" fill="#86868b" letter-spacing="0.6">ACCOUNT</text>
      <text x="0" y="14" font-family="monospace" font-size="12" fill="#1d1d1f">sshdopey.eth</text>
      <text x="180" y="0" font-family="-apple-system, BlinkMacSystemFont, 'Segoe UI', sans-serif" font-size="8" fill="#86868b" letter-spacing="0.6">NETWORK</text>
      <text x="180" y="14" font-family="-apple-system, BlinkMacSystemFont, 'Segoe UI', sans-serif" font-size="12" fill="#1d1d1f">Ethereum Mainnet</text>
      <text x="360" y="0" font-family="-apple-system, BlinkMacSystemFont, 'Segoe UI', sans-serif" font-size="8" fill="#86868b" letter-spacing="0.6">BLOCK</text>
      <text x="360" y="14" font-family="-apple-system, BlinkMacSystemFont, 'Segoe UI', sans-serif" font-size="12" fill="#1d1d1f">#21,842,306</text>
    </g>

    <!-- Net worth -->
    <g transform="translate(28, 104)">
      <rect x="0" y="0" width="484" height="62" rx="8" fill="#f5f5f7"/>
      <text x="16" y="20" font-family="-apple-system, BlinkMacSystemFont, 'Segoe UI', sans-serif" font-size="8" fill="#86868b" letter-spacing="0.6">TOTAL NET WORTH</text>
      <text x="16" y="48" font-family="-apple-system, BlinkMacSystemFont, 'Segoe UI', sans-serif" font-size="32" font-weight="600" fill="#1d1d1f" letter-spacing="-0.5">$142,502<tspan fill="#86868b" font-size="32" opacity="0.3">.88</tspan></text>
    </g>

    <!-- Holdings -->
    <g transform="translate(28, 186)">
      <text x="0" y="0" font-family="-apple-system, BlinkMacSystemFont, 'Segoe UI', sans-serif" font-size="8" fill="#86868b" letter-spacing="0.6">HOLDINGS</text>
      <line x1="0" y1="12" x2="484" y2="12" stroke="#e5e5ea" stroke-width="0.5"/>

      <!-- ETH -->
      <g transform="translate(2, 22) scale(0.625)">
        <g fill="#000000" fill-rule="evenodd">
          <path d="M16 32C7.163 32 0 24.837 0 16S7.163 0 16 0s16 7.163 16 16-7.163 16-16 16zm7.994-15.781L16.498 4 9 16.22l7.498 4.353 7.496-4.354zM24 17.616l-7.502 4.351L9 17.617l7.498 10.378L24 17.616z"/>
          <g fill-rule="nonzero">
            <path fill-opacity=".298" d="M16.498 4v8.87l7.497 3.35zm0 17.968v6.027L24 17.616z"/>
            <path fill-opacity=".801" d="M16.498 20.573l7.497-4.353-7.497-3.348z"/>
            <path fill-opacity=".298" d="M9 16.22l7.498 4.353v-7.701z"/>
          </g>
        </g>
      </g>
      <text x="28" y="35" font-family="-apple-system, BlinkMacSystemFont, 'Segoe UI', sans-serif" font-size="13" font-weight="500" fill="#1d1d1f">Ethereum</text>
      <text x="28" y="48" font-family="-apple-system, BlinkMacSystemFont, 'Segoe UI', sans-serif" font-size="9" fill="#86868b">32.4500 ETH</text>
      <text x="460" y="40" text-anchor="end" font-family="-apple-system, BlinkMacSystemFont, 'Segoe UI', sans-serif" font-size="13" fill="#1d1d1f">$84,120.00</text>

      <line x1="0" y1="56" x2="484" y2="56" stroke="#e5e5ea" stroke-width="0.3"/>

      <!-- USDC -->
      <g transform="translate(2, 64) scale(0.625)">
        <g fill="none">
          <circle fill="#3E73C4" cx="16" cy="16" r="16"/>
          <g fill="#FFF">
            <path d="M20.022 18.124c0-2.124-1.28-2.852-3.84-3.156-1.828-.243-2.193-.728-2.193-1.578 0-.85.61-1.396 1.828-1.396 1.097 0 1.707.364 2.011 1.275a.458.458 0 00.427.303h.975a.416.416 0 00.427-.425v-.06a3.04 3.04 0 00-2.743-2.489V9.142c0-.243-.183-.425-.487-.486h-.915c-.243 0-.426.182-.487.486v1.396c-1.829.242-2.986 1.456-2.986 2.974 0 2.002 1.218 2.791 3.778 3.095 1.707.303 2.255.668 2.255 1.639 0 .97-.853 1.638-2.011 1.638-1.585 0-2.133-.667-2.316-1.578-.06-.242-.244-.364-.427-.364h-1.036a.416.416 0 00-.426.425v.06c.243 1.518 1.219 2.61 3.23 2.914v1.457c0 .242.183.425.487.485h.915c.243 0 .426-.182.487-.485V21.34c1.829-.303 3.047-1.578 3.047-3.217z"/>
            <path d="M12.892 24.497c-4.754-1.7-7.192-6.98-5.424-11.653.914-2.55 2.925-4.491 5.424-5.402.244-.121.365-.303.365-.607v-.85c0-.242-.121-.424-.365-.485-.061 0-.183 0-.244.06a10.895 10.895 0 00-7.13 13.717c1.096 3.4 3.717 6.01 7.13 7.102.244.121.488 0 .548-.243.061-.06.061-.122.061-.243v-.85c0-.182-.182-.424-.365-.546zm6.46-18.936c-.244-.122-.488 0-.548.242-.061.061-.061.122-.061.243v.85c0 .243.182.485.365.607 4.754 1.7 7.192 6.98 5.424 11.653-.914 2.55-2.925 4.491-5.424 5.402-.244.121-.365.303-.365.607v.85c0 .242.121.424.365.485.061 0 .183 0 .244-.06a10.895 10.895 0 007.13-13.717c-1.096-3.46-3.778-6.07-7.13-7.162z"/>
          </g>
        </g>
      </g>
      <text x="28" y="77" font-family="-apple-system, BlinkMacSystemFont, 'Segoe UI', sans-serif" font-size="13" font-weight="500" fill="#1d1d1f">USD Coin</text>
      <text x="28" y="90" font-family="-apple-system, BlinkMacSystemFont, 'Segoe UI', sans-serif" font-size="9" fill="#86868b">58,382.88 USDC</text>
      <text x="460" y="82" text-anchor="end" font-family="-apple-system, BlinkMacSystemFont, 'Segoe UI', sans-serif" font-size="13" fill="#1d1d1f">$58,382.88</text>

      <line x1="0" y1="98" x2="484" y2="98" stroke="#e5e5ea" stroke-width="0.3"/>

      <!-- Total -->
      <rect x="0" y="104" width="484" height="26" rx="4" fill="#f5f5f7"/>
      <text x="350" y="121" font-family="-apple-system, BlinkMacSystemFont, 'Segoe UI', sans-serif" font-size="10" fill="#86868b">Total</text>
      <text x="460" y="121" text-anchor="end" font-family="-apple-system, BlinkMacSystemFont, 'Segoe UI', sans-serif" font-size="12" font-weight="600" fill="#003499">$142,502.88</text>
    </g>

    <!-- Transactions -->
    <g transform="translate(28, 332)">
      <text x="0" y="0" font-family="-apple-system, BlinkMacSystemFont, 'Segoe UI', sans-serif" font-size="8" fill="#86868b" letter-spacing="0.6">RECENT TRANSACTIONS</text>
      <line x1="0" y1="12" x2="484" y2="12" stroke="#e5e5ea" stroke-width="0.5"/>

      <text x="0" y="30" font-family="-apple-system, BlinkMacSystemFont, 'Segoe UI', sans-serif" font-size="12" fill="#1d1d1f">Received ETH</text>
      <text x="0" y="44" font-family="-apple-system, BlinkMacSystemFont, 'Segoe UI', sans-serif" font-size="9" fill="#86868b">Mar 15 from vitalik.eth</text>
      <text x="460" y="30" text-anchor="end" font-family="-apple-system, BlinkMacSystemFont, 'Segoe UI', sans-serif" font-size="12" fill="#1d1d1f">+$4,280.00</text>

      <line x1="0" y1="54" x2="484" y2="54" stroke="#e5e5ea" stroke-width="0.2"/>

      <text x="0" y="72" font-family="-apple-system, BlinkMacSystemFont, 'Segoe UI', sans-serif" font-size="12" fill="#1d1d1f">Sent USDC</text>
      <text x="0" y="86" font-family="-apple-system, BlinkMacSystemFont, 'Segoe UI', sans-serif" font-size="9" fill="#86868b">Mar 12 to nick.eth</text>
      <text x="460" y="72" text-anchor="end" font-family="-apple-system, BlinkMacSystemFont, 'Segoe UI', sans-serif" font-size="12" fill="#1d1d1f">-$2,500.00</text>

      <line x1="0" y1="96" x2="484" y2="96" stroke="#e5e5ea" stroke-width="0.2"/>

      <text x="0" y="114" font-family="-apple-system, BlinkMacSystemFont, 'Segoe UI', sans-serif" font-size="12" fill="#1d1d1f">Uniswap Swap</text>
      <text x="0" y="128" font-family="-apple-system, BlinkMacSystemFont, 'Segoe UI', sans-serif" font-size="9" fill="#86868b">Mar 10 via uniswap.eth</text>
      <text x="460" y="114" text-anchor="end" font-family="-apple-system, BlinkMacSystemFont, 'Segoe UI', sans-serif" font-size="12" fill="#1d1d1f">$1,847.32</text>
    </g>

    <!-- Card footer -->
    <line x1="28" y1="488" x2="512" y2="488" stroke="#e5e5ea" stroke-width="0.5"/>
    <g transform="translate(28, 504)">
      <!-- QR code -->
      <rect x="0" y="0" width="48" height="48" rx="4" fill="#f5f5f7"/>
      <g transform="translate(5, 5)">
        <rect x="0" y="0" width="13" height="13" rx="2" fill="#1d1d1f" opacity="0.12"/>
        <rect x="25" y="0" width="13" height="13" rx="2" fill="#1d1d1f" opacity="0.12"/>
        <rect x="0" y="25" width="13" height="13" rx="2" fill="#1d1d1f" opacity="0.12"/>
        <rect x="3.5" y="3.5" width="6" height="6" rx="1" fill="#1d1d1f" opacity="0.25"/>
        <rect x="28.5" y="3.5" width="6" height="6" rx="1" fill="#1d1d1f" opacity="0.25"/>
        <rect x="3.5" y="28.5" width="6" height="6" rx="1" fill="#1d1d1f" opacity="0.25"/>
        <rect x="16" y="16" width="6" height="6" rx="0.5" fill="#1d1d1f" opacity="0.08"/>
        <rect x="24" y="16" width="6" height="6" rx="0.5" fill="#1d1d1f" opacity="0.08"/>
        <rect x="16" y="24" width="6" height="6" rx="0.5" fill="#1d1d1f" opacity="0.08"/>
        <rect x="24" y="24" width="14" height="14" rx="0.5" fill="#1d1d1f" opacity="0.08"/>
      </g>

      <text x="60" y="15" font-family="-apple-system, BlinkMacSystemFont, 'Segoe UI', sans-serif" font-size="11" font-weight="500" fill="#1d1d1f">Verify this statement</text>
      <text x="60" y="30" font-family="-apple-system, BlinkMacSystemFont, 'Segoe UI', sans-serif" font-size="10" fill="#003499">fundslip.xyz/verify</text>
      <text x="60" y="44" font-family="monospace" font-size="8" fill="#86868b">EIP-712 Signed · No server involved</text>
    </g>

    <text x="28" y="580" font-family="-apple-system, BlinkMacSystemFont, 'Segoe UI', sans-serif" font-size="9" fill="#86868b">Fundslip — fundslip.xyz</text>
    <text x="512" y="580" text-anchor="end" font-family="-apple-system, BlinkMacSystemFont, 'Segoe UI', sans-serif" font-size="9" fill="#86868b">March 25, 2026</text>
  </g>

  <!-- Bottom left URL -->
  <text x="80" y="692" font-family="-apple-system, BlinkMacSystemFont, 'Segoe UI', sans-serif" font-size="14" fill="#86868b">fundslip.xyz</text>
</svg>
